<svg xmlns="http://www.w3.org/2000/svg" width="320" height="80" viewBox="0 0 320 80">
  <defs>
    <linearGradient id="hl_top" x1="0" y1="0" x2="1" y2="0">
      <stop offset="0" stop-color="#7a8faa" stop-opacity="1.0"/>
      <stop offset="1" stop-color="#3a4a5e" stop-opacity="0.2"/>
    </linearGradient>
    <linearGradient id="hl_left" x1="0" y1="0" x2="0" y2="1">
      <stop offset="0" stop-color="#7a8faa" stop-opacity="1.0"/>
      <stop offset="1" stop-color="#3a4a5e" stop-opacity="0.2"/>
    </linearGradient>
    <linearGradient id="sh_right" x1="0" y1="0" x2="0" y2="1">
      <stop offset="0" stop-color="#0d1018" stop-opacity="0.4"/>
      <stop offset="1" stop-color="#050608" stop-opacity="1.0"/>
    </linearGradient>
    <linearGradient id="sh_bottom" x1="0" y1="0" x2="1" y2="0">
      <stop offset="0" stop-color="#0d1018" stop-opacity="0.4"/>
      <stop offset="1" stop-color="#050608" stop-opacity="1.0"/>
    </linearGradient>
    <linearGradient id="inner_top" x1="0" y1="0" x2="0" y2="1">
      <stop offset="0" stop-color="#020304" stop-opacity="0.9"/>
      <stop offset="1" stop-color="#020304" stop-opacity="0.0"/>
    </linearGradient>
    <linearGradient id="inner_left" x1="0" y1="0" x2="1" y2="0">
      <stop offset="0" stop-color="#020304" stop-opacity="0.9"/>
      <stop offset="1" stop-color="#020304" stop-opacity="0.0"/>
    </linearGradient>
    <linearGradient id="mat_top" x1="0" y1="0" x2="1" y2="0">
      <stop offset="0" stop-color="#030406" stop-opacity="0.9"/>
      <stop offset="1" stop-color="#030406" stop-opacity="0.2"/>
    </linearGradient>
    <linearGradient id="mat_left" x1="0" y1="0" x2="0" y2="1">
      <stop offset="0" stop-color="#030406" stop-opacity="0.9"/>
      <stop offset="1" stop-color="#030406" stop-opacity="0.2"/>
    </linearGradient>
    <linearGradient id="mat_right" x1="0" y1="0" x2="0" y2="1">
      <stop offset="0" stop-color="#3a4e62" stop-opacity="0.2"/>
      <stop offset="1" stop-color="#3a4e62" stop-opacity="0.7"/>
    </linearGradient>
    <linearGradient id="mat_bottom" x1="0" y1="0" x2="1" y2="0">
      <stop offset="0" stop-color="#3a4e62" stop-opacity="0.2"/>
      <stop offset="1" stop-color="#3a4e62" stop-opacity="0.7"/>
    </linearGradient>

    
    <clipPath id="dot_clip" clipPathUnits="userSpaceOnUse">
      <rect x="0" y="0" width="53.34" height="53.34" transform="translate(16.67,16.67)"/>
    </clipPath>

    
    <linearGradient id="tg" x1="88" y1="5" x2="300" y2="75" gradientUnits="userSpaceOnUse">
      <stop offset="0"   stop-color="#a8b8c8"/>
      <stop offset="0.5" stop-color="#566474"/>
      <stop offset="1"   stop-color="#1a2230"/>
    </linearGradient>
  </defs>

  
  <g transform="scale(0.6667)">
    <rect x="2"   y="2"   width="117" height="117" rx="4"  fill="#07090f"/>
    <rect x="0"   y="0"   width="120" height="120" rx="4"  fill="#222b3a"/>
    <rect x="0"   y="0"   width="120" height="4"          fill="url(#hl_top)"/>
    <rect x="0"   y="0"   width="4"   height="120"        fill="url(#hl_left)"/>
    <rect x="116" y="0"   width="4"   height="120"        fill="url(#sh_right)"/>
    <rect x="0"   y="116" width="120" height="4"          fill="url(#sh_bottom)"/>
    <rect x="16"  y="16"  width="88"  height="88"  rx="2" fill="#0d1520"/>
    <rect x="16"  y="16"  width="88"  height="10"         fill="url(#inner_top)"/>
    <rect x="16"  y="16"  width="10"  height="88"         fill="url(#inner_left)"/>
    <rect x="20"  y="20"  width="80"  height="3"          fill="url(#mat_top)"/>
    <rect x="20"  y="20"  width="3"   height="80"         fill="url(#mat_left)"/>
    <rect x="97"  y="20"  width="3"   height="80"         fill="url(#mat_right)"/>
    <rect x="20"  y="97"  width="80"  height="3"          fill="url(#mat_bottom)"/>
    <rect x="25"  y="25"  width="70"  height="70"  rx="1" fill="#090d14"/>
    <g clip-path="url(#dot_clip)">
      <circle cx="30.1" cy="30.8" r="4.5" fill="#3ee8c0" opacity="0.98"/>
      <circle cx="88.6" cy="32.2" r="4.0" fill="#f5c800" opacity="0.95"/>
      <circle cx="58.9" cy="48.4" r="3.5" fill="#3ee8c0" opacity="0.82"/>
      <circle cx="41.2" cy="74.0" r="4.2" fill="#ff7043" opacity="0.90"/>
      <circle cx="81.2" cy="76.8" r="4.2" fill="#a855f7" opacity="0.88"/>
      <circle cx="38.6" cy="50.1" r="2.8" fill="#f03e6e" opacity="0.76"/>
      <circle cx="51.1" cy="62.9" r="2.6" fill="#ff7043" opacity="0.73"/>
      <circle cx="82.9" cy="52.7" r="2.8" fill="#f5c800" opacity="0.74"/>
      <circle cx="71.6" cy="62.3" r="2.6" fill="#a855f7" opacity="0.71"/>
      <circle cx="57.4" cy="32.2" r="1.8" fill="#f5c800" opacity="0.58"/>
      <circle cx="71.7" cy="86.0" r="1.6" fill="#f03e6e" opacity="0.55"/>
    </g>
  </g>

  
  <text
    x="90"
    y="57"
    font-family="'Futura','Century Gothic','Trebuchet MS',sans-serif"
    font-weight="400"
    font-size="44"
    letter-spacing="0.05em"
    fill="url(#tg)"
  >WiSP</text>
</svg>