<svg xmlns="http://www.w3.org/2000/svg" width="120" height="120" viewBox="0 0 120 120">
  <defs>
    <!-- 外枠ベベル: 光源は左上 -->
    <linearGradient id="hl_top" x1="0" y1="0" x2="1" y2="0">
      <stop offset="0" stop-color="#7a8faa" stop-opacity="1.0"/>
      <stop offset="1" stop-color="#3a4a5e" stop-opacity="0.2"/>
    </linearGradient>
    <linearGradient id="hl_left" x1="0" y1="0" x2="0" y2="1">
      <stop offset="0" stop-color="#7a8faa" stop-opacity="1.0"/>
      <stop offset="1" stop-color="#3a4a5e" stop-opacity="0.2"/>
    </linearGradient>
    <linearGradient id="sh_right" x1="0" y1="0" x2="0" y2="1">
      <stop offset="0" stop-color="#0d1018" stop-opacity="0.4"/>
      <stop offset="1" stop-color="#050608" stop-opacity="1.0"/>
    </linearGradient>
    <linearGradient id="sh_bottom" x1="0" y1="0" x2="1" y2="0">
      <stop offset="0" stop-color="#0d1018" stop-opacity="0.4"/>
      <stop offset="1" stop-color="#050608" stop-opacity="1.0"/>
    </linearGradient>

    <!-- ディスプレイ内側シャドウ: 凹んだスクリーン -->
    <linearGradient id="inner_top" x1="0" y1="0" x2="0" y2="1">
      <stop offset="0" stop-color="#020304" stop-opacity="0.9"/>
      <stop offset="1" stop-color="#020304" stop-opacity="0.0"/>
    </linearGradient>
    <linearGradient id="inner_left" x1="0" y1="0" x2="1" y2="0">
      <stop offset="0" stop-color="#020304" stop-opacity="0.9"/>
      <stop offset="1" stop-color="#020304" stop-opacity="0.0"/>
    </linearGradient>

    <!-- マット溝ベベル: 逆方向（左上がシャドウ = 凹み感） -->
    <linearGradient id="mat_top" x1="0" y1="0" x2="1" y2="0">
      <stop offset="0" stop-color="#030406" stop-opacity="0.9"/>
      <stop offset="1" stop-color="#030406" stop-opacity="0.2"/>
    </linearGradient>
    <linearGradient id="mat_left" x1="0" y1="0" x2="0" y2="1">
      <stop offset="0" stop-color="#030406" stop-opacity="0.9"/>
      <stop offset="1" stop-color="#030406" stop-opacity="0.2"/>
    </linearGradient>
    <linearGradient id="mat_right" x1="0" y1="0" x2="0" y2="1">
      <stop offset="0" stop-color="#3a4e62" stop-opacity="0.2"/>
      <stop offset="1" stop-color="#3a4e62" stop-opacity="0.7"/>
    </linearGradient>
    <linearGradient id="mat_bottom" x1="0" y1="0" x2="1" y2="0">
      <stop offset="0" stop-color="#3a4e62" stop-opacity="0.2"/>
      <stop offset="1" stop-color="#3a4e62" stop-opacity="0.7"/>
    </linearGradient>

    <!-- ドットのクリップパス -->
    <clipPath id="photo_clip">
      <rect x="25" y="25" width="70" height="70" rx="1"/>
    </clipPath>
  </defs>

  <!-- フレーム本体 -->
  <rect x="0" y="0" width="120" height="120" rx="4" fill="#222b3a"/>

  <!-- 4. 外枠ベベルエッジ（4px） -->
  <rect x="0"   y="0"   width="120" height="4"   fill="url(#hl_top)"/>
  <rect x="0"   y="0"   width="4"   height="120" fill="url(#hl_left)"/>
  <rect x="116" y="0"   width="4"   height="120" fill="url(#sh_right)"/>
  <rect x="0"   y="116" width="120" height="4"   fill="url(#sh_bottom)"/>

  <!-- 5. ディスプレイエリア（均一ベースカラー） -->
  <rect x="16" y="16" width="88" height="88" rx="2" fill="#0d1520"/>

  <!-- 6. ディスプレイ内側シャドウ（10pxフェード） -->
  <rect x="16" y="16" width="88" height="10" fill="url(#inner_top)"/>
  <rect x="16" y="16" width="10" height="88" fill="url(#inner_left)"/>

  <!-- 7. マット溝ベベル（逆方向、3px幅） -->
  <rect x="20" y="20" width="80" height="3" fill="url(#mat_top)"/>
  <rect x="20" y="20" width="3"  height="80" fill="url(#mat_left)"/>
  <rect x="97" y="20" width="3"  height="80" fill="url(#mat_right)"/>
  <rect x="20" y="97" width="80" height="3"  fill="url(#mat_bottom)"/>

  <!-- 8. フォトエリア -->
  <rect x="25" y="25" width="70" height="70" rx="1" fill="#090d14"/>

  <!-- 9. エラー表現（目がバツ、口が一文字） -->
  <g clip-path="url(#photo_clip)">
    <!-- 左目：X パターン -->
    <circle cx="36" cy="38" r="3.5" fill="#ff4444" opacity="0.95"/><!-- 左上 -->
    <circle cx="46" cy="48" r="3.5" fill="#ff4444" opacity="0.95"/><!-- 右下 -->
    <circle cx="46" cy="38" r="3.5" fill="#ff4444" opacity="0.95"/><!-- 右上 -->
    <circle cx="36" cy="48" r="3.5" fill="#ff4444" opacity="0.95"/><!-- 左下 -->

    <!-- 右目：X パターン -->
    <circle cx="74" cy="38" r="3.5" fill="#ff4444" opacity="0.95"/><!-- 左上 -->
    <circle cx="84" cy="48" r="3.5" fill="#ff4444" opacity="0.95"/><!-- 右下 -->
    <circle cx="84" cy="38" r="3.5" fill="#ff4444" opacity="0.95"/><!-- 右上 -->
    <circle cx="74" cy="48" r="3.5" fill="#ff4444" opacity="0.95"/><!-- 左下 -->

    <!-- 口：- パターン（水平線） -->
    <circle cx="48" cy="70" r="3.5" fill="#ff4444" opacity="0.90"/>
    <circle cx="58" cy="70" r="3.5" fill="#ff4444" opacity="0.90"/>
    <circle cx="68" cy="70" r="3.5" fill="#ff4444" opacity="0.90"/>
  </g>
</svg>
